<mxfile host="app.diagrams.net" modified="2023-09-22T21:32:25.583Z" agent="Mozilla/5.0 (Macintosh; Intel Mac OS X 10.15; rv:109.0) Gecko/20100101 Firefox/117.0" etag="2pmpgWN05C3RvcVPBJ4i" version="21.8.0" type="github">
  <diagram name="Page-1" id="5f0bae14-7c28-e335-631c-24af17079c00">
    <mxGraphModel dx="1125" dy="684" grid="1" gridSize="10" guides="1" tooltips="1" connect="1" arrows="1" fold="1" page="1" pageScale="1" pageWidth="1100" pageHeight="850" background="none" math="0" shadow="0">
      <root>
        <mxCell id="0" />
        <mxCell id="1" parent="0" />
        <mxCell id="39150e848f15840c-1" value="&lt;div align=&quot;center&quot;&gt;&amp;lt;&amp;lt;componenet&amp;gt;&amp;gt;&lt;br&gt;&lt;/div&gt;&lt;div align=&quot;center&quot;&gt;&lt;b&gt;User Management&lt;/b&gt;&lt;/div&gt;" style="verticalAlign=top;align=center;spacingTop=8;spacingLeft=2;spacingRight=12;shape=cube;size=10;direction=south;fontStyle=4;html=1;rounded=0;shadow=0;comic=0;labelBackgroundColor=none;strokeWidth=1;fontFamily=Verdana;fontSize=12" parent="1" vertex="1">
          <mxGeometry x="40" y="70" width="330" height="280" as="geometry" />
        </mxCell>
        <mxCell id="39150e848f15840c-2" value="&lt;div align=&quot;center&quot;&gt;&amp;lt;&amp;lt;component&amp;gt;&amp;gt;&lt;/div&gt;&lt;div align=&quot;center&quot;&gt;&lt;b&gt;Product Catalog&lt;/b&gt;&lt;br&gt;&lt;/div&gt;" style="verticalAlign=top;align=center;spacingTop=8;spacingLeft=2;spacingRight=12;shape=cube;size=10;direction=south;fontStyle=4;html=1;rounded=0;shadow=0;comic=0;labelBackgroundColor=none;strokeWidth=1;fontFamily=Verdana;fontSize=12" parent="1" vertex="1">
          <mxGeometry x="530" y="70" width="330" height="220" as="geometry" />
        </mxCell>
        <mxCell id="39150e848f15840c-3" value="&lt;div align=&quot;center&quot;&gt;&amp;lt;&amp;lt;conmponent&amp;gt;&amp;gt;&lt;/div&gt;&lt;div align=&quot;center&quot;&gt;&lt;b&gt;Order Management&lt;/b&gt;&lt;br&gt;&lt;/div&gt;" style="verticalAlign=top;align=center;spacingTop=8;spacingLeft=2;spacingRight=12;shape=cube;size=10;direction=south;fontStyle=4;html=1;rounded=0;shadow=0;comic=0;labelBackgroundColor=none;strokeWidth=1;fontFamily=Verdana;fontSize=12" parent="1" vertex="1">
          <mxGeometry x="520" y="420" width="330" height="260" as="geometry" />
        </mxCell>
        <mxCell id="39150e848f15840c-4" value="«interface»&lt;b&gt;&lt;br&gt;login&lt;/b&gt;&lt;br&gt;&lt;b&gt;&lt;/b&gt;" style="html=1;rounded=0;shadow=0;comic=0;labelBackgroundColor=none;strokeWidth=1;fontFamily=Verdana;fontSize=12;align=center;" parent="1" vertex="1">
          <mxGeometry x="80" y="140" width="110" height="50" as="geometry" />
        </mxCell>
        <mxCell id="39150e848f15840c-8" value="«interface»&lt;br&gt;&lt;b&gt;searchProduct&lt;/b&gt;" style="html=1;rounded=0;shadow=0;comic=0;labelBackgroundColor=none;strokeWidth=1;fontFamily=Verdana;fontSize=12;align=center;" parent="1" vertex="1">
          <mxGeometry x="560" y="135" width="110" height="50" as="geometry" />
        </mxCell>
        <mxCell id="vYSH1dlIzJYR8qmIdLRo-5" value="«interface»&lt;b&gt;&lt;br&gt;updateProduct&lt;/b&gt;" style="html=1;rounded=0;shadow=0;comic=0;labelBackgroundColor=none;strokeWidth=1;fontFamily=Verdana;fontSize=12;align=center;" vertex="1" parent="1">
          <mxGeometry x="710" y="135" width="110" height="50" as="geometry" />
        </mxCell>
        <mxCell id="vYSH1dlIzJYR8qmIdLRo-6" value="«interface»&lt;b&gt;&lt;br&gt;addProduct&lt;/b&gt;&lt;br&gt;&lt;b&gt;&lt;/b&gt;" style="html=1;rounded=0;shadow=0;comic=0;labelBackgroundColor=none;strokeWidth=1;fontFamily=Verdana;fontSize=12;align=center;" vertex="1" parent="1">
          <mxGeometry x="560" y="210" width="110" height="50" as="geometry" />
        </mxCell>
        <mxCell id="vYSH1dlIzJYR8qmIdLRo-7" value="«interface»&lt;br&gt;&lt;b&gt;removeProduct&lt;/b&gt;" style="html=1;rounded=0;shadow=0;comic=0;labelBackgroundColor=none;strokeWidth=1;fontFamily=Verdana;fontSize=12;align=center;" vertex="1" parent="1">
          <mxGeometry x="710" y="210" width="110" height="50" as="geometry" />
        </mxCell>
        <mxCell id="vYSH1dlIzJYR8qmIdLRo-8" value="&lt;div align=&quot;center&quot;&gt;&amp;lt;&amp;lt;conmponent&amp;gt;&amp;gt;&lt;/div&gt;&lt;div align=&quot;center&quot;&gt;&lt;b&gt;Payment Gateway&lt;/b&gt;&lt;br&gt;&lt;/div&gt;" style="verticalAlign=top;align=center;spacingTop=8;spacingLeft=2;spacingRight=12;shape=cube;size=10;direction=south;fontStyle=4;html=1;rounded=0;shadow=0;comic=0;labelBackgroundColor=none;strokeWidth=1;fontFamily=Verdana;fontSize=12" vertex="1" parent="1">
          <mxGeometry x="40" y="420" width="330" height="260" as="geometry" />
        </mxCell>
        <mxCell id="vYSH1dlIzJYR8qmIdLRo-9" value="«interface»&lt;b&gt; &lt;br&gt;addOrder&lt;/b&gt;&lt;br&gt;&lt;b&gt;&lt;/b&gt;" style="html=1;rounded=0;shadow=0;comic=0;labelBackgroundColor=none;strokeWidth=1;fontFamily=Verdana;fontSize=12;align=center;" vertex="1" parent="1">
          <mxGeometry x="550" y="480" width="110" height="50" as="geometry" />
        </mxCell>
        <mxCell id="vYSH1dlIzJYR8qmIdLRo-10" value="«interface»&lt;br&gt;&lt;b&gt;updateOrder&lt;/b&gt;" style="html=1;rounded=0;shadow=0;comic=0;labelBackgroundColor=none;strokeWidth=1;fontFamily=Verdana;fontSize=12;align=center;" vertex="1" parent="1">
          <mxGeometry x="700" y="480" width="110" height="50" as="geometry" />
        </mxCell>
        <mxCell id="vYSH1dlIzJYR8qmIdLRo-11" value="«interface»&lt;b&gt; &lt;br&gt;deleteOrder&lt;/b&gt;" style="html=1;rounded=0;shadow=0;comic=0;labelBackgroundColor=none;strokeWidth=1;fontFamily=Verdana;fontSize=12;align=center;" vertex="1" parent="1">
          <mxGeometry x="550" y="570" width="110" height="50" as="geometry" />
        </mxCell>
        <mxCell id="vYSH1dlIzJYR8qmIdLRo-12" value="«interface»&lt;b&gt; &lt;br&gt;submitOrder&lt;br&gt;&lt;/b&gt;" style="html=1;rounded=0;shadow=0;comic=0;labelBackgroundColor=none;strokeWidth=1;fontFamily=Verdana;fontSize=12;align=center;" vertex="1" parent="1">
          <mxGeometry x="700" y="570" width="110" height="50" as="geometry" />
        </mxCell>
        <mxCell id="vYSH1dlIzJYR8qmIdLRo-13" value="«interface»&lt;b&gt; &lt;br&gt;processPayment&lt;br&gt;&lt;/b&gt;" style="html=1;rounded=0;shadow=0;comic=0;labelBackgroundColor=none;strokeWidth=1;fontFamily=Verdana;fontSize=12;align=center;" vertex="1" parent="1">
          <mxGeometry x="140" y="490" width="120" height="50" as="geometry" />
        </mxCell>
        <mxCell id="vYSH1dlIzJYR8qmIdLRo-14" value="«interface»&lt;b&gt; &lt;br&gt;processRefund&lt;br&gt;&lt;/b&gt;" style="html=1;rounded=0;shadow=0;comic=0;labelBackgroundColor=none;strokeWidth=1;fontFamily=Verdana;fontSize=12;align=center;" vertex="1" parent="1">
          <mxGeometry x="140" y="570" width="120" height="50" as="geometry" />
        </mxCell>
        <mxCell id="vYSH1dlIzJYR8qmIdLRo-16" value="«interface»&lt;b&gt;&lt;br&gt;register&lt;/b&gt;&lt;br&gt;&lt;b&gt;&lt;/b&gt;" style="html=1;rounded=0;shadow=0;comic=0;labelBackgroundColor=none;strokeWidth=1;fontFamily=Verdana;fontSize=12;align=center;" vertex="1" parent="1">
          <mxGeometry x="220" y="140" width="110" height="50" as="geometry" />
        </mxCell>
        <mxCell id="vYSH1dlIzJYR8qmIdLRo-17" value="«interface»&lt;b&gt;&lt;br&gt;updateUser&lt;/b&gt;" style="html=1;rounded=0;shadow=0;comic=0;labelBackgroundColor=none;strokeWidth=1;fontFamily=Verdana;fontSize=12;align=center;" vertex="1" parent="1">
          <mxGeometry x="150" y="230" width="110" height="50" as="geometry" />
        </mxCell>
        <mxCell id="vYSH1dlIzJYR8qmIdLRo-19" value="" style="rounded=0;orthogonalLoop=1;jettySize=auto;html=1;endArrow=halfCircle;endFill=0;endSize=6;strokeWidth=1;sketch=0;exitX=0.369;exitY=1.015;exitDx=0;exitDy=0;exitPerimeter=0;" edge="1" parent="1" source="39150e848f15840c-3">
          <mxGeometry relative="1" as="geometry">
            <mxPoint x="440" y="335" as="sourcePoint" />
            <mxPoint x="440" y="390" as="targetPoint" />
          </mxGeometry>
        </mxCell>
        <mxCell id="vYSH1dlIzJYR8qmIdLRo-20" value="" style="rounded=0;orthogonalLoop=1;jettySize=auto;html=1;endArrow=oval;endFill=0;sketch=0;sourcePerimeterSpacing=0;targetPerimeterSpacing=0;endSize=10;exitX=0.767;exitY=-0.008;exitDx=0;exitDy=0;exitPerimeter=0;" edge="1" parent="1" source="39150e848f15840c-1">
          <mxGeometry relative="1" as="geometry">
            <mxPoint x="400" y="335" as="sourcePoint" />
            <mxPoint x="440" y="390" as="targetPoint" />
            <Array as="points" />
          </mxGeometry>
        </mxCell>
        <mxCell id="vYSH1dlIzJYR8qmIdLRo-21" value="" style="ellipse;whiteSpace=wrap;html=1;align=center;aspect=fixed;fillColor=none;strokeColor=none;resizable=0;perimeter=centerPerimeter;rotatable=0;allowArrows=0;points=[];outlineConnect=1;" vertex="1" parent="1">
          <mxGeometry x="430" y="210" width="10" height="10" as="geometry" />
        </mxCell>
        <mxCell id="vYSH1dlIzJYR8qmIdLRo-23" value="" style="rounded=0;orthogonalLoop=1;jettySize=auto;html=1;endArrow=halfCircle;endFill=0;endSize=6;strokeWidth=1;sketch=0;exitX=0;exitY=0;exitDx=0;exitDy=160;exitPerimeter=0;" edge="1" parent="1" source="39150e848f15840c-3">
          <mxGeometry relative="1" as="geometry">
            <mxPoint x="440" y="425" as="sourcePoint" />
            <mxPoint x="690" y="350" as="targetPoint" />
          </mxGeometry>
        </mxCell>
        <mxCell id="vYSH1dlIzJYR8qmIdLRo-24" value="" style="rounded=0;orthogonalLoop=1;jettySize=auto;html=1;endArrow=oval;endFill=0;sketch=0;sourcePerimeterSpacing=0;targetPerimeterSpacing=0;endSize=10;exitX=0;exitY=0;exitDx=220;exitDy=170;exitPerimeter=0;" edge="1" parent="1" source="39150e848f15840c-2">
          <mxGeometry relative="1" as="geometry">
            <mxPoint x="400" y="425" as="sourcePoint" />
            <mxPoint x="690" y="350" as="targetPoint" />
          </mxGeometry>
        </mxCell>
        <mxCell id="vYSH1dlIzJYR8qmIdLRo-25" value="" style="ellipse;whiteSpace=wrap;html=1;align=center;aspect=fixed;fillColor=none;strokeColor=none;resizable=0;perimeter=centerPerimeter;rotatable=0;allowArrows=0;points=[];outlineConnect=1;" vertex="1" parent="1">
          <mxGeometry x="415" y="420" width="10" height="10" as="geometry" />
        </mxCell>
        <mxCell id="vYSH1dlIzJYR8qmIdLRo-26" value="" style="rounded=0;orthogonalLoop=1;jettySize=auto;html=1;endArrow=halfCircle;endFill=0;endSize=6;strokeWidth=1;sketch=0;" edge="1" parent="1">
          <mxGeometry relative="1" as="geometry">
            <mxPoint x="370" y="602" as="sourcePoint" />
            <mxPoint x="430" y="602" as="targetPoint" />
          </mxGeometry>
        </mxCell>
        <mxCell id="vYSH1dlIzJYR8qmIdLRo-27" value="" style="rounded=0;orthogonalLoop=1;jettySize=auto;html=1;endArrow=oval;endFill=0;sketch=0;sourcePerimeterSpacing=0;targetPerimeterSpacing=0;endSize=10;exitX=0.696;exitY=1.004;exitDx=0;exitDy=0;exitPerimeter=0;" edge="1" parent="1" source="39150e848f15840c-3">
          <mxGeometry relative="1" as="geometry">
            <mxPoint x="400" y="485" as="sourcePoint" />
            <mxPoint x="430" y="601" as="targetPoint" />
          </mxGeometry>
        </mxCell>
        <mxCell id="vYSH1dlIzJYR8qmIdLRo-28" value="" style="ellipse;whiteSpace=wrap;html=1;align=center;aspect=fixed;fillColor=none;strokeColor=none;resizable=0;perimeter=centerPerimeter;rotatable=0;allowArrows=0;points=[];outlineConnect=1;" vertex="1" parent="1">
          <mxGeometry x="415" y="480" width="10" height="10" as="geometry" />
        </mxCell>
        <mxCell id="vYSH1dlIzJYR8qmIdLRo-31" value="" style="ellipse;whiteSpace=wrap;html=1;align=center;aspect=fixed;fillColor=none;strokeColor=none;resizable=0;perimeter=centerPerimeter;rotatable=0;allowArrows=0;points=[];outlineConnect=1;" vertex="1" parent="1">
          <mxGeometry x="345" y="440" width="10" height="10" as="geometry" />
        </mxCell>
      </root>
    </mxGraphModel>
  </diagram>
</mxfile>
